<svg width="234" height="75" viewBox="0 0 234 75" fill="none" xmlns="http://www.w3.org/2000/svg">
<path d="M42.5 13.5L68.4432 39.5L35.9432 72.5L33.9432 70L52.911 50.1826C54.2958 48.7357 55.5504 47.0857 55.7673 45.0948C56.3071 40.1409 54.0595 32.6199 43.3055 34.8836C41.7254 35.2163 40.2608 35.9566 38.8141 36.6739C35.1779 38.4766 33.0605 38.3469 30.9432 37.5C28.4432 36.5 23.9429 33.5 23.9429 28.5C23.9429 25.5 24.9429 23 25.9432 21.5C26.7434 20.3001 34.4432 12.8333 37.9432 9L39.9429 11.5L30.1464 21.7224C29.015 22.903 27.9134 24.1954 27.5862 25.7976C26.8533 29.3874 28.5205 33.9439 36.9432 34C37.3432 33.2 37.1099 31.3333 36.9432 30.5C34.6742 30.7836 30.8366 30.295 30.9745 26.6933C31.0311 25.2138 31.9874 23.958 33.0281 22.9048C36.9192 18.9666 40.7392 14.9673 42.5 13.5Z" fill="white" stroke="#1E2748" stroke-width="0.4"/>
<path d="M27.8004 63.9971L1.16972 38.6285L33.4997 5.46191L35.5125 7.9516L14.8866 29.5708C14.2979 30.1877 13.7587 30.8673 13.524 31.687C12.1423 36.5124 14.4435 46.9509 28.6899 42.4871C33.6744 39.4615 36.1744 39.4486 38.6795 40.4358C41.1846 41.4229 45.7003 44.3997 45.726 49.3997C45.7414 52.3996 44.7542 54.9047 43.7616 56.4099C42.9676 57.6138 35.3063 65.1201 31.826 68.9714L29.9429 66.5L41.2517 54.4227C43.2337 50.9125 43.0978 43.9823 32.6976 43.9665C32.3017 44.7686 32.5446 46.634 32.7155 47.4665C34.983 47.1712 38.8231 47.6401 38.7037 51.2425C38.6547 52.7223 37.7043 53.9826 36.6709 55.043C32.9112 58.9009 29.5504 62.5235 27.8004 63.9971Z" fill="#1E2748" stroke="#1E2748"/>
<circle cx="42.9429" cy="10" r="1.8" fill="white" stroke="#1E2748" stroke-width="0.4"/>
<rect x="50.8989" y="4.62549" width="6" height="4" rx="1" transform="rotate(131.027 50.8989 4.62549)" fill="#1E2748"/>
<circle cx="26.8989" cy="67" r="2" transform="rotate(-180 26.8989 67)" fill="#1E2748"/>
<rect x="19.225" y="72.3549" width="5.6" height="3.6" rx="0.8" transform="rotate(-48.9731 19.225 72.3549)" fill="white" stroke="#1E2748" stroke-width="0.4"/>
<path d="M81.428 37.231C79.734 37.231 78.216 36.956 76.874 36.406C75.532 35.856 74.454 35.042 73.64 33.964C72.848 32.886 72.43 31.588 72.386 30.07H78.392C78.48 30.928 78.777 31.588 79.283 32.05C79.789 32.49 80.449 32.71 81.263 32.71C82.099 32.71 82.759 32.523 83.243 32.149C83.727 31.753 83.969 31.214 83.969 30.532C83.969 29.96 83.771 29.487 83.375 29.113C83.001 28.739 82.528 28.431 81.956 28.189C81.406 27.947 80.614 27.672 79.58 27.364C78.084 26.902 76.863 26.44 75.917 25.978C74.971 25.516 74.157 24.834 73.475 23.932C72.793 23.03 72.452 21.853 72.452 20.401C72.452 18.245 73.233 16.562 74.795 15.352C76.357 14.12 78.392 13.504 80.9 13.504C83.452 13.504 85.509 14.12 87.071 15.352C88.633 16.562 89.469 18.256 89.579 20.434H83.474C83.43 19.686 83.155 19.103 82.649 18.685C82.143 18.245 81.494 18.025 80.702 18.025C80.02 18.025 79.47 18.212 79.052 18.586C78.634 18.938 78.425 19.455 78.425 20.137C78.425 20.885 78.777 21.468 79.481 21.886C80.185 22.304 81.285 22.755 82.781 23.239C84.277 23.745 85.487 24.229 86.411 24.691C87.357 25.153 88.171 25.824 88.853 26.704C89.535 27.584 89.876 28.717 89.876 30.103C89.876 31.423 89.535 32.622 88.853 33.7C88.193 34.778 87.225 35.636 85.949 36.274C84.673 36.912 83.166 37.231 81.428 37.231ZM108.1 32.908H99.4537L98.0677 37H92.1607L100.543 13.834H107.077L115.459 37H109.486L108.1 32.908ZM106.648 28.552L103.777 20.071L100.939 28.552H106.648ZM133.718 21.16C133.3 20.39 132.695 19.807 131.903 19.411C131.133 18.993 130.22 18.784 129.164 18.784C127.338 18.784 125.875 19.389 124.775 20.599C123.675 21.787 123.125 23.382 123.125 25.384C123.125 27.518 123.697 29.19 124.841 30.4C126.007 31.588 127.602 32.182 129.626 32.182C131.012 32.182 132.178 31.83 133.124 31.126C134.092 30.422 134.796 29.41 135.236 28.09H128.075V23.932H140.351V29.179C139.933 30.587 139.218 31.896 138.206 33.106C137.216 34.316 135.951 35.295 134.411 36.043C132.871 36.791 131.133 37.165 129.197 37.165C126.909 37.165 124.863 36.67 123.059 35.68C121.277 34.668 119.88 33.271 118.868 31.489C117.878 29.707 117.383 27.672 117.383 25.384C117.383 23.096 117.878 21.061 118.868 19.279C119.88 17.475 121.277 16.078 123.059 15.088C124.841 14.076 126.876 13.57 129.164 13.57C131.936 13.57 134.268 14.241 136.16 15.583C138.074 16.925 139.339 18.784 139.955 21.16H133.718ZM142.85 25.384C142.85 23.096 143.345 21.061 144.335 19.279C145.325 17.475 146.7 16.078 148.46 15.088C150.242 14.076 152.255 13.57 154.499 13.57C157.249 13.57 159.603 14.296 161.561 15.748C163.519 17.2 164.828 19.18 165.488 21.688H159.284C158.822 20.72 158.162 19.983 157.304 19.477C156.468 18.971 155.511 18.718 154.433 18.718C152.695 18.718 151.287 19.323 150.209 20.533C149.131 21.743 148.592 23.36 148.592 25.384C148.592 27.408 149.131 29.025 150.209 30.235C151.287 31.445 152.695 32.05 154.433 32.05C155.511 32.05 156.468 31.797 157.304 31.291C158.162 30.785 158.822 30.048 159.284 29.08H165.488C164.828 31.588 163.519 33.568 161.561 35.02C159.603 36.45 157.249 37.165 154.499 37.165C152.255 37.165 150.242 36.67 148.46 35.68C146.7 34.668 145.325 33.271 144.335 31.489C143.345 29.707 142.85 27.672 142.85 25.384ZM180.229 37.231C178.051 37.231 176.049 36.725 174.223 35.713C172.419 34.701 170.978 33.293 169.9 31.489C168.844 29.663 168.316 27.617 168.316 25.351C168.316 23.085 168.844 21.05 169.9 19.246C170.978 17.442 172.419 16.034 174.223 15.022C176.049 14.01 178.051 13.504 180.229 13.504C182.407 13.504 184.398 14.01 186.202 15.022C188.028 16.034 189.458 17.442 190.492 19.246C191.548 21.05 192.076 23.085 192.076 25.351C192.076 27.617 191.548 29.663 190.492 31.489C189.436 33.293 188.006 34.701 186.202 35.713C184.398 36.725 182.407 37.231 180.229 37.231ZM180.229 32.083C182.077 32.083 183.551 31.467 184.651 30.235C185.773 29.003 186.334 27.375 186.334 25.351C186.334 23.305 185.773 21.677 184.651 20.467C183.551 19.235 182.077 18.619 180.229 18.619C178.359 18.619 176.863 19.224 175.741 20.434C174.641 21.644 174.091 23.283 174.091 25.351C174.091 27.397 174.641 29.036 175.741 30.268C176.863 31.478 178.359 32.083 180.229 32.083ZM207.36 37L202.542 28.255H201.189V37H195.546V13.834H205.017C206.843 13.834 208.394 14.153 209.67 14.791C210.968 15.429 211.936 16.309 212.574 17.431C213.212 18.531 213.531 19.763 213.531 21.127C213.531 22.667 213.091 24.042 212.211 25.252C211.353 26.462 210.077 27.32 208.383 27.826L213.729 37H207.36ZM201.189 24.262H204.687C205.721 24.262 206.491 24.009 206.997 23.503C207.525 22.997 207.789 22.282 207.789 21.358C207.789 20.478 207.525 19.785 206.997 19.279C206.491 18.773 205.721 18.52 204.687 18.52H201.189V24.262ZM223.046 18.355V23.041H230.603V27.397H223.046V32.479H231.593V37H217.403V13.834H231.593V18.355H223.046Z" fill="#1E2748"/>
<mask id="path-8-outside-1_62_44" maskUnits="userSpaceOnUse" x="80" y="46" width="153" height="16" fill="black">
<rect fill="white" x="80" y="46" width="153" height="16"/>
<path d="M85.88 61V48.74H81.08V47H92.66V48.74H87.86V61H85.88ZM97.2583 53.04H104.458V54.74H97.2583V53.04ZM97.4383 59.26H105.598V61H95.4383V47H105.318V48.74H97.4383V59.26ZM115.677 61.16C114.611 61.16 113.624 60.9867 112.717 60.64C111.824 60.28 111.044 59.78 110.377 59.14C109.724 58.4867 109.211 57.7267 108.837 56.86C108.464 55.9933 108.277 55.04 108.277 54C108.277 52.96 108.464 52.0067 108.837 51.14C109.211 50.2733 109.731 49.52 110.397 48.88C111.064 48.2267 111.844 47.7267 112.737 47.38C113.644 47.02 114.631 46.84 115.697 46.84C116.777 46.84 117.771 47.0267 118.677 47.4C119.597 47.76 120.377 48.3 121.017 49.02L119.717 50.28C119.184 49.72 118.584 49.3067 117.917 49.04C117.251 48.76 116.537 48.62 115.777 48.62C114.991 48.62 114.257 48.7533 113.577 49.02C112.911 49.2867 112.331 49.66 111.837 50.14C111.344 50.62 110.957 51.1933 110.677 51.86C110.411 52.5133 110.277 53.2267 110.277 54C110.277 54.7733 110.411 55.4933 110.677 56.16C110.957 56.8133 111.344 57.38 111.837 57.86C112.331 58.34 112.911 58.7133 113.577 58.98C114.257 59.2467 114.991 59.38 115.777 59.38C116.537 59.38 117.251 59.2467 117.917 58.98C118.584 58.7 119.184 58.2733 119.717 57.7L121.017 58.96C120.377 59.68 119.597 60.2267 118.677 60.6C117.771 60.9733 116.771 61.16 115.677 61.16ZM134.51 47H136.51V61H134.51V47ZM126.47 61H124.47V47H126.47V61ZM134.69 54.76H126.27V53.02H134.69V54.76ZM141.301 61V47H142.941L152.201 58.5H151.341V47H153.341V61H151.701L142.441 49.5H143.301V61H141.301ZM164.451 61.16C163.385 61.16 162.391 60.98 161.471 60.62C160.565 60.26 159.778 59.76 159.111 59.12C158.445 58.4667 157.925 57.7067 157.551 56.84C157.178 55.9733 156.991 55.0267 156.991 54C156.991 52.9733 157.178 52.0267 157.551 51.16C157.925 50.2933 158.445 49.54 159.111 48.9C159.778 48.2467 160.565 47.74 161.471 47.38C162.378 47.02 163.371 46.84 164.451 46.84C165.518 46.84 166.498 47.02 167.391 47.38C168.298 47.7267 169.085 48.2267 169.751 48.88C170.431 49.52 170.951 50.2733 171.311 51.14C171.685 52.0067 171.871 52.96 171.871 54C171.871 55.04 171.685 55.9933 171.311 56.86C170.951 57.7267 170.431 58.4867 169.751 59.14C169.085 59.78 168.298 60.28 167.391 60.64C166.498 60.9867 165.518 61.16 164.451 61.16ZM164.451 59.38C165.225 59.38 165.938 59.2467 166.591 58.98C167.258 58.7133 167.831 58.34 168.311 57.86C168.805 57.3667 169.185 56.7933 169.451 56.14C169.731 55.4867 169.871 54.7733 169.871 54C169.871 53.2267 169.731 52.5133 169.451 51.86C169.185 51.2067 168.805 50.64 168.311 50.16C167.831 49.6667 167.258 49.2867 166.591 49.02C165.938 48.7533 165.225 48.62 164.451 48.62C163.665 48.62 162.938 48.7533 162.271 49.02C161.618 49.2867 161.045 49.6667 160.551 50.16C160.058 50.64 159.671 51.2067 159.391 51.86C159.125 52.5133 158.991 53.2267 158.991 54C158.991 54.7733 159.125 55.4867 159.391 56.14C159.671 56.7933 160.058 57.3667 160.551 57.86C161.045 58.34 161.618 58.7133 162.271 58.98C162.938 59.2467 163.665 59.38 164.451 59.38ZM175.528 61V47H177.528V59.26H185.108V61H175.528ZM194.069 61.16C193.003 61.16 192.009 60.98 191.089 60.62C190.183 60.26 189.396 59.76 188.729 59.12C188.063 58.4667 187.543 57.7067 187.169 56.84C186.796 55.9733 186.609 55.0267 186.609 54C186.609 52.9733 186.796 52.0267 187.169 51.16C187.543 50.2933 188.063 49.54 188.729 48.9C189.396 48.2467 190.183 47.74 191.089 47.38C191.996 47.02 192.989 46.84 194.069 46.84C195.136 46.84 196.116 47.02 197.009 47.38C197.916 47.7267 198.703 48.2267 199.369 48.88C200.049 49.52 200.569 50.2733 200.929 51.14C201.303 52.0067 201.489 52.96 201.489 54C201.489 55.04 201.303 55.9933 200.929 56.86C200.569 57.7267 200.049 58.4867 199.369 59.14C198.703 59.78 197.916 60.28 197.009 60.64C196.116 60.9867 195.136 61.16 194.069 61.16ZM194.069 59.38C194.843 59.38 195.556 59.2467 196.209 58.98C196.876 58.7133 197.449 58.34 197.929 57.86C198.423 57.3667 198.803 56.7933 199.069 56.14C199.349 55.4867 199.489 54.7733 199.489 54C199.489 53.2267 199.349 52.5133 199.069 51.86C198.803 51.2067 198.423 50.64 197.929 50.16C197.449 49.6667 196.876 49.2867 196.209 49.02C195.556 48.7533 194.843 48.62 194.069 48.62C193.283 48.62 192.556 48.7533 191.889 49.02C191.236 49.2867 190.663 49.6667 190.169 50.16C189.676 50.64 189.289 51.2067 189.009 51.86C188.743 52.5133 188.609 53.2267 188.609 54C188.609 54.7733 188.743 55.4867 189.009 56.14C189.289 56.7933 189.676 57.3667 190.169 57.86C190.663 58.34 191.236 58.7133 191.889 58.98C192.556 59.2467 193.283 59.38 194.069 59.38ZM211.466 61.16C210.386 61.16 209.393 60.9867 208.486 60.64C207.579 60.28 206.793 59.78 206.126 59.14C205.459 58.4867 204.939 57.7267 204.566 56.86C204.193 55.9933 204.006 55.04 204.006 54C204.006 52.96 204.193 52.0067 204.566 51.14C204.939 50.2733 205.459 49.52 206.126 48.88C206.806 48.2267 207.599 47.7267 208.506 47.38C209.413 47.02 210.413 46.84 211.506 46.84C212.613 46.84 213.626 47.02 214.546 47.38C215.466 47.74 216.246 48.28 216.886 49L215.646 50.24C215.073 49.68 214.446 49.2733 213.766 49.02C213.099 48.7533 212.373 48.62 211.586 48.62C210.786 48.62 210.039 48.7533 209.346 49.02C208.666 49.2867 208.073 49.66 207.566 50.14C207.073 50.62 206.686 51.1933 206.406 51.86C206.139 52.5133 206.006 53.2267 206.006 54C206.006 54.76 206.139 55.4733 206.406 56.14C206.686 56.7933 207.073 57.3667 207.566 57.86C208.073 58.34 208.666 58.7133 209.346 58.98C210.026 59.2467 210.766 59.38 211.566 59.38C212.313 59.38 213.026 59.2667 213.706 59.04C214.399 58.8 215.039 58.4067 215.626 57.86L216.766 59.38C216.073 59.9667 215.259 60.4133 214.326 60.72C213.406 61.0133 212.453 61.16 211.466 61.16ZM214.846 59.12V53.92H216.766V59.38L214.846 59.12ZM224.575 61V55.64L225.035 56.88L219.015 47H221.155L226.215 55.34H225.055L230.135 47H232.115L226.115 56.88L226.555 55.64V61H224.575Z"/>
</mask>
<path d="M85.88 61V48.74H81.08V47H92.66V48.74H87.86V61H85.88ZM97.2583 53.04H104.458V54.74H97.2583V53.04ZM97.4383 59.26H105.598V61H95.4383V47H105.318V48.74H97.4383V59.26ZM115.677 61.16C114.611 61.16 113.624 60.9867 112.717 60.64C111.824 60.28 111.044 59.78 110.377 59.14C109.724 58.4867 109.211 57.7267 108.837 56.86C108.464 55.9933 108.277 55.04 108.277 54C108.277 52.96 108.464 52.0067 108.837 51.14C109.211 50.2733 109.731 49.52 110.397 48.88C111.064 48.2267 111.844 47.7267 112.737 47.38C113.644 47.02 114.631 46.84 115.697 46.84C116.777 46.84 117.771 47.0267 118.677 47.4C119.597 47.76 120.377 48.3 121.017 49.02L119.717 50.28C119.184 49.72 118.584 49.3067 117.917 49.04C117.251 48.76 116.537 48.62 115.777 48.62C114.991 48.62 114.257 48.7533 113.577 49.02C112.911 49.2867 112.331 49.66 111.837 50.14C111.344 50.62 110.957 51.1933 110.677 51.86C110.411 52.5133 110.277 53.2267 110.277 54C110.277 54.7733 110.411 55.4933 110.677 56.16C110.957 56.8133 111.344 57.38 111.837 57.86C112.331 58.34 112.911 58.7133 113.577 58.98C114.257 59.2467 114.991 59.38 115.777 59.38C116.537 59.38 117.251 59.2467 117.917 58.98C118.584 58.7 119.184 58.2733 119.717 57.7L121.017 58.96C120.377 59.68 119.597 60.2267 118.677 60.6C117.771 60.9733 116.771 61.16 115.677 61.16ZM134.51 47H136.51V61H134.51V47ZM126.47 61H124.47V47H126.47V61ZM134.69 54.76H126.27V53.02H134.69V54.76ZM141.301 61V47H142.941L152.201 58.5H151.341V47H153.341V61H151.701L142.441 49.5H143.301V61H141.301ZM164.451 61.16C163.385 61.16 162.391 60.98 161.471 60.62C160.565 60.26 159.778 59.76 159.111 59.12C158.445 58.4667 157.925 57.7067 157.551 56.84C157.178 55.9733 156.991 55.0267 156.991 54C156.991 52.9733 157.178 52.0267 157.551 51.16C157.925 50.2933 158.445 49.54 159.111 48.9C159.778 48.2467 160.565 47.74 161.471 47.38C162.378 47.02 163.371 46.84 164.451 46.84C165.518 46.84 166.498 47.02 167.391 47.38C168.298 47.7267 169.085 48.2267 169.751 48.88C170.431 49.52 170.951 50.2733 171.311 51.14C171.685 52.0067 171.871 52.96 171.871 54C171.871 55.04 171.685 55.9933 171.311 56.86C170.951 57.7267 170.431 58.4867 169.751 59.14C169.085 59.78 168.298 60.28 167.391 60.64C166.498 60.9867 165.518 61.16 164.451 61.16ZM164.451 59.38C165.225 59.38 165.938 59.2467 166.591 58.98C167.258 58.7133 167.831 58.34 168.311 57.86C168.805 57.3667 169.185 56.7933 169.451 56.14C169.731 55.4867 169.871 54.7733 169.871 54C169.871 53.2267 169.731 52.5133 169.451 51.86C169.185 51.2067 168.805 50.64 168.311 50.16C167.831 49.6667 167.258 49.2867 166.591 49.02C165.938 48.7533 165.225 48.62 164.451 48.62C163.665 48.62 162.938 48.7533 162.271 49.02C161.618 49.2867 161.045 49.6667 160.551 50.16C160.058 50.64 159.671 51.2067 159.391 51.86C159.125 52.5133 158.991 53.2267 158.991 54C158.991 54.7733 159.125 55.4867 159.391 56.14C159.671 56.7933 160.058 57.3667 160.551 57.86C161.045 58.34 161.618 58.7133 162.271 58.98C162.938 59.2467 163.665 59.38 164.451 59.38ZM175.528 61V47H177.528V59.26H185.108V61H175.528ZM194.069 61.16C193.003 61.16 192.009 60.98 191.089 60.62C190.183 60.26 189.396 59.76 188.729 59.12C188.063 58.4667 187.543 57.7067 187.169 56.84C186.796 55.9733 186.609 55.0267 186.609 54C186.609 52.9733 186.796 52.0267 187.169 51.16C187.543 50.2933 188.063 49.54 188.729 48.9C189.396 48.2467 190.183 47.74 191.089 47.38C191.996 47.02 192.989 46.84 194.069 46.84C195.136 46.84 196.116 47.02 197.009 47.38C197.916 47.7267 198.703 48.2267 199.369 48.88C200.049 49.52 200.569 50.2733 200.929 51.14C201.303 52.0067 201.489 52.96 201.489 54C201.489 55.04 201.303 55.9933 200.929 56.86C200.569 57.7267 200.049 58.4867 199.369 59.14C198.703 59.78 197.916 60.28 197.009 60.64C196.116 60.9867 195.136 61.16 194.069 61.16ZM194.069 59.38C194.843 59.38 195.556 59.2467 196.209 58.98C196.876 58.7133 197.449 58.34 197.929 57.86C198.423 57.3667 198.803 56.7933 199.069 56.14C199.349 55.4867 199.489 54.7733 199.489 54C199.489 53.2267 199.349 52.5133 199.069 51.86C198.803 51.2067 198.423 50.64 197.929 50.16C197.449 49.6667 196.876 49.2867 196.209 49.02C195.556 48.7533 194.843 48.62 194.069 48.62C193.283 48.62 192.556 48.7533 191.889 49.02C191.236 49.2867 190.663 49.6667 190.169 50.16C189.676 50.64 189.289 51.2067 189.009 51.86C188.743 52.5133 188.609 53.2267 188.609 54C188.609 54.7733 188.743 55.4867 189.009 56.14C189.289 56.7933 189.676 57.3667 190.169 57.86C190.663 58.34 191.236 58.7133 191.889 58.98C192.556 59.2467 193.283 59.38 194.069 59.38ZM211.466 61.16C210.386 61.16 209.393 60.9867 208.486 60.64C207.579 60.28 206.793 59.78 206.126 59.14C205.459 58.4867 204.939 57.7267 204.566 56.86C204.193 55.9933 204.006 55.04 204.006 54C204.006 52.96 204.193 52.0067 204.566 51.14C204.939 50.2733 205.459 49.52 206.126 48.88C206.806 48.2267 207.599 47.7267 208.506 47.38C209.413 47.02 210.413 46.84 211.506 46.84C212.613 46.84 213.626 47.02 214.546 47.38C215.466 47.74 216.246 48.28 216.886 49L215.646 50.24C215.073 49.68 214.446 49.2733 213.766 49.02C213.099 48.7533 212.373 48.62 211.586 48.62C210.786 48.62 210.039 48.7533 209.346 49.02C208.666 49.2867 208.073 49.66 207.566 50.14C207.073 50.62 206.686 51.1933 206.406 51.86C206.139 52.5133 206.006 53.2267 206.006 54C206.006 54.76 206.139 55.4733 206.406 56.14C206.686 56.7933 207.073 57.3667 207.566 57.86C208.073 58.34 208.666 58.7133 209.346 58.98C210.026 59.2467 210.766 59.38 211.566 59.38C212.313 59.38 213.026 59.2667 213.706 59.04C214.399 58.8 215.039 58.4067 215.626 57.86L216.766 59.38C216.073 59.9667 215.259 60.4133 214.326 60.72C213.406 61.0133 212.453 61.16 211.466 61.16ZM214.846 59.12V53.92H216.766V59.38L214.846 59.12ZM224.575 61V55.64L225.035 56.88L219.015 47H221.155L226.215 55.34H225.055L230.135 47H232.115L226.115 56.88L226.555 55.64V61H224.575Z" fill="white"/>
<path d="M85.88 61H85.48V61.4H85.88V61ZM85.88 48.74H86.28V48.34H85.88V48.74ZM81.08 48.74H80.68V49.14H81.08V48.74ZM81.08 47V46.6H80.68V47H81.08ZM92.66 47H93.06V46.6H92.66V47ZM92.66 48.74V49.14H93.06V48.74H92.66ZM87.86 48.74V48.34H87.46V48.74H87.86ZM87.86 61V61.4H88.26V61H87.86ZM86.28 61V48.74H85.48V61H86.28ZM85.88 48.34H81.08V49.14H85.88V48.34ZM81.48 48.74V47H80.68V48.74H81.48ZM81.08 47.4H92.66V46.6H81.08V47.4ZM92.26 47V48.74H93.06V47H92.26ZM92.66 48.34H87.86V49.14H92.66V48.34ZM87.46 48.74V61H88.26V48.74H87.46ZM87.86 60.6H85.88V61.4H87.86V60.6ZM97.2583 53.04V52.64H96.8583V53.04H97.2583ZM104.458 53.04H104.858V52.64H104.458V53.04ZM104.458 54.74V55.14H104.858V54.74H104.458ZM97.2583 54.74H96.8583V55.14H97.2583V54.74ZM97.4383 59.26H97.0383V59.66H97.4383V59.26ZM105.598 59.26H105.998V58.86H105.598V59.26ZM105.598 61V61.4H105.998V61H105.598ZM95.4383 61H95.0383V61.4H95.4383V61ZM95.4383 47V46.6H95.0383V47H95.4383ZM105.318 47H105.718V46.6H105.318V47ZM105.318 48.74V49.14H105.718V48.74H105.318ZM97.4383 48.74V48.34H97.0383V48.74H97.4383ZM97.2583 53.44H104.458V52.64H97.2583V53.44ZM104.058 53.04V54.74H104.858V53.04H104.058ZM104.458 54.34H97.2583V55.14H104.458V54.34ZM97.6583 54.74V53.04H96.8583V54.74H97.6583ZM97.4383 59.66H105.598V58.86H97.4383V59.66ZM105.198 59.26V61H105.998V59.26H105.198ZM105.598 60.6H95.4383V61.4H105.598V60.6ZM95.8383 61V47H95.0383V61H95.8383ZM95.4383 47.4H105.318V46.6H95.4383V47.4ZM104.918 47V48.74H105.718V47H104.918ZM105.318 48.34H97.4383V49.14H105.318V48.34ZM97.0383 48.74V59.26H97.8383V48.74H97.0383ZM112.717 60.64L112.568 61.0111L112.574 61.0136L112.717 60.64ZM110.377 59.14L110.094 59.4229L110.1 59.4286L110.377 59.14ZM108.837 56.86L109.205 56.7018L109.205 56.7018L108.837 56.86ZM108.837 51.14L109.205 51.2982L109.205 51.2982L108.837 51.14ZM110.397 48.88L110.674 49.1686L110.677 49.1657L110.397 48.88ZM112.737 47.38L112.882 47.7529L112.885 47.7518L112.737 47.38ZM118.677 47.4L118.525 47.7699L118.531 47.7725L118.677 47.4ZM121.017 49.02L121.296 49.3072L121.571 49.0406L121.316 48.7543L121.017 49.02ZM119.717 50.28L119.428 50.5559L119.706 50.8481L119.996 50.5672L119.717 50.28ZM117.917 49.04L117.762 49.4088L117.769 49.4114L117.917 49.04ZM113.577 49.02L113.431 48.6476L113.429 48.6486L113.577 49.02ZM110.677 51.86L110.308 51.7051L110.307 51.7088L110.677 51.86ZM110.677 56.16L110.306 56.3086L110.31 56.3176L110.677 56.16ZM113.577 58.98L113.429 59.3514L113.431 59.3524L113.577 58.98ZM117.917 58.98L118.066 59.3514L118.072 59.3488L117.917 58.98ZM119.717 57.7L119.996 57.4128L119.702 57.1286L119.424 57.4276L119.717 57.7ZM121.017 58.96L121.316 59.2257L121.571 58.9394L121.296 58.6728L121.017 58.96ZM118.677 60.6L118.527 60.2293L118.525 60.2301L118.677 60.6ZM115.677 60.76C114.655 60.76 113.717 60.594 112.86 60.2664L112.574 61.0136C113.531 61.3794 114.567 61.56 115.677 61.56V60.76ZM112.867 60.269C112.019 59.9273 111.282 59.4546 110.654 58.8514L110.1 59.4286C110.805 60.1054 111.629 60.6327 112.568 61.011L112.867 60.269ZM110.66 58.8572C110.043 58.2404 109.558 57.5229 109.205 56.7018L108.47 57.0182C108.863 57.9304 109.404 58.7329 110.094 59.4228L110.66 58.8572ZM109.205 56.7018C108.855 55.89 108.677 54.9912 108.677 54H107.877C107.877 55.0888 108.073 56.0967 108.47 57.0182L109.205 56.7018ZM108.677 54C108.677 53.0088 108.855 52.11 109.205 51.2982L108.47 50.9817C108.073 51.9033 107.877 52.9112 107.877 54H108.677ZM109.205 51.2982C109.557 50.4796 110.047 49.7708 110.674 49.1686L110.12 48.5914C109.414 49.2692 108.864 50.0671 108.47 50.9817L109.205 51.2982ZM110.677 49.1657C111.304 48.5513 112.038 48.0805 112.882 47.7529L112.592 47.0071C111.65 47.3728 110.824 47.902 110.117 48.5943L110.677 49.1657ZM112.885 47.7518C113.74 47.4121 114.676 47.24 115.697 47.24V46.44C114.585 46.44 113.547 46.6279 112.59 47.0082L112.885 47.7518ZM115.697 47.24C116.73 47.24 117.671 47.4184 118.525 47.7699L118.829 47.0301C117.87 46.635 116.824 46.44 115.697 46.44V47.24ZM118.531 47.7725C119.394 48.1101 120.121 48.6141 120.718 49.2857L121.316 48.7543C120.633 47.9858 119.8 47.4099 118.823 47.0275L118.531 47.7725ZM120.739 48.7328L119.439 49.9928L119.996 50.5672L121.296 49.3072L120.739 48.7328ZM120.007 50.0041C119.437 49.4058 118.79 48.9582 118.066 48.6686L117.769 49.4114C118.378 49.6551 118.931 50.0342 119.428 50.5559L120.007 50.0041ZM118.072 48.6712C117.354 48.3696 116.588 48.22 115.777 48.22V49.02C116.487 49.02 117.147 49.1504 117.762 49.4088L118.072 48.6712ZM115.777 48.22C114.944 48.22 114.161 48.3613 113.431 48.6476L113.723 49.3924C114.353 49.1453 115.037 49.02 115.777 49.02V48.22ZM113.429 48.6486C112.716 48.9339 112.091 49.3352 111.558 49.8533L112.116 50.4267C112.57 49.9847 113.106 49.6395 113.726 49.3914L113.429 48.6486ZM111.558 49.8533C111.024 50.3726 110.608 50.9915 110.308 51.7051L111.046 52.0149C111.306 51.3952 111.663 50.8674 112.116 50.4267L111.558 49.8533ZM110.307 51.7088C110.019 52.4146 109.877 53.1798 109.877 54H110.677C110.677 53.2735 110.802 52.6121 111.048 52.0112L110.307 51.7088ZM109.877 54C109.877 54.8203 110.019 55.5911 110.306 56.3086L111.049 56.0114C110.802 55.3956 110.677 54.7264 110.677 54H109.877ZM110.31 56.3176C110.61 57.0178 111.026 57.6287 111.558 58.1467L112.116 57.5733C111.662 57.1313 111.305 56.6089 111.045 56.0024L110.31 56.3176ZM111.558 58.1467C112.091 58.6648 112.716 59.0661 113.429 59.3514L113.726 58.6086C113.106 58.3605 112.57 58.0152 112.116 57.5733L111.558 58.1467ZM113.431 59.3524C114.161 59.6387 114.944 59.78 115.777 59.78V58.98C115.037 58.98 114.353 58.8547 113.723 58.6076L113.431 59.3524ZM115.777 59.78C116.585 59.78 117.349 59.638 118.066 59.3514L117.769 58.6086C117.152 58.8553 116.489 58.98 115.777 58.98V59.78ZM118.072 59.3488C118.795 59.0451 119.441 58.5838 120.01 57.9724L119.424 57.4276C118.926 57.9628 118.372 58.3549 117.762 58.6112L118.072 59.3488ZM119.439 57.9872L120.739 59.2472L121.296 58.6728L119.996 57.4128L119.439 57.9872ZM120.718 58.6943C120.12 59.3669 119.392 59.8784 118.527 60.2294L118.828 60.9706C119.803 60.5749 120.634 59.9931 121.316 59.2257L120.718 58.6943ZM118.525 60.2301C117.672 60.5814 116.724 60.76 115.677 60.76V61.56C116.817 61.56 117.869 61.3653 118.829 60.9699L118.525 60.2301ZM134.51 47V46.6H134.11V47H134.51ZM136.51 47H136.91V46.6H136.51V47ZM136.51 61V61.4H136.91V61H136.51ZM134.51 61H134.11V61.4H134.51V61ZM126.47 61V61.4H126.87V61H126.47ZM124.47 61H124.07V61.4H124.47V61ZM124.47 47V46.6H124.07V47H124.47ZM126.47 47H126.87V46.6H126.47V47ZM134.69 54.76V55.16H135.09V54.76H134.69ZM126.27 54.76H125.87V55.16H126.27V54.76ZM126.27 53.02V52.62H125.87V53.02H126.27ZM134.69 53.02H135.09V52.62H134.69V53.02ZM134.51 47.4H136.51V46.6H134.51V47.4ZM136.11 47V61H136.91V47H136.11ZM136.51 60.6H134.51V61.4H136.51V60.6ZM134.91 61V47H134.11V61H134.91ZM126.47 60.6H124.47V61.4H126.47V60.6ZM124.87 61V47H124.07V61H124.87ZM124.47 47.4H126.47V46.6H124.47V47.4ZM126.07 47V61H126.87V47H126.07ZM134.69 54.36H126.27V55.16H134.69V54.36ZM126.67 54.76V53.02H125.87V54.76H126.67ZM126.27 53.42H134.69V52.62H126.27V53.42ZM134.29 53.02V54.76H135.09V53.02H134.29ZM141.301 61H140.901V61.4H141.301V61ZM141.301 47V46.6H140.901V47H141.301ZM142.941 47L143.252 46.7491L143.132 46.6H142.941V47ZM152.201 58.5V58.9H153.036L152.512 58.2491L152.201 58.5ZM151.341 58.5H150.941V58.9H151.341V58.5ZM151.341 47V46.6H150.941V47H151.341ZM153.341 47H153.741V46.6H153.341V47ZM153.341 61V61.4H153.741V61H153.341ZM151.701 61L151.389 61.2509L151.509 61.4H151.701V61ZM142.441 49.5V49.1H141.605L142.129 49.7509L142.441 49.5ZM143.301 49.5H143.701V49.1H143.301V49.5ZM143.301 61V61.4H143.701V61H143.301ZM141.701 61V47H140.901V61H141.701ZM141.301 47.4H142.941V46.6H141.301V47.4ZM142.629 47.2509L151.889 58.7509L152.512 58.2491L143.252 46.7491L142.629 47.2509ZM152.201 58.1H151.341V58.9H152.201V58.1ZM151.741 58.5V47H150.941V58.5H151.741ZM151.341 47.4H153.341V46.6H151.341V47.4ZM152.941 47V61H153.741V47H152.941ZM153.341 60.6H151.701V61.4H153.341V60.6ZM152.012 60.7491L142.752 49.2491L142.129 49.7509L151.389 61.2509L152.012 60.7491ZM142.441 49.9H143.301V49.1H142.441V49.9ZM142.901 49.5V61H143.701V49.5H142.901ZM143.301 60.6H141.301V61.4H143.301V60.6ZM161.471 60.62L161.324 60.9918L161.325 60.9925L161.471 60.62ZM159.111 59.12L158.831 59.4057L158.834 59.4086L159.111 59.12ZM157.551 56.84L157.919 56.6818L157.919 56.6818L157.551 56.84ZM157.551 51.16L157.919 51.3182L157.919 51.3182L157.551 51.16ZM159.111 48.9L159.388 49.1886L159.391 49.1857L159.111 48.9ZM161.471 47.38L161.324 47.0082L161.324 47.0082L161.471 47.38ZM167.391 47.38L167.242 47.7511L167.248 47.7536L167.391 47.38ZM169.751 48.88L169.471 49.1657L169.477 49.1713L169.751 48.88ZM171.311 51.14L170.942 51.2935L170.944 51.2982L171.311 51.14ZM171.311 56.86L170.944 56.7017L170.942 56.7066L171.311 56.86ZM169.751 59.14L170.028 59.4286L170.028 59.4284L169.751 59.14ZM167.391 60.64L167.536 61.0129L167.539 61.0118L167.391 60.64ZM166.591 58.98L166.443 58.6086L166.44 58.6097L166.591 58.98ZM168.311 57.86L168.594 58.1428L168.594 58.1428L168.311 57.86ZM169.451 56.14L169.084 55.9824L169.081 55.9888L169.451 56.14ZM169.451 51.86L169.081 52.0112L169.084 52.0176L169.451 51.86ZM168.311 50.16L168.024 50.439L168.032 50.4467L168.311 50.16ZM166.591 49.02L166.44 49.3903L166.443 49.3914L166.591 49.02ZM162.271 49.02L162.123 48.6486L162.12 48.6497L162.271 49.02ZM160.551 50.16L160.83 50.4467L160.834 50.4428L160.551 50.16ZM159.391 51.86L159.024 51.7024L159.021 51.7088L159.391 51.86ZM159.391 56.14L159.021 56.2912L159.024 56.2976L159.391 56.14ZM160.551 57.86L160.268 58.1429L160.272 58.1467L160.551 57.86ZM162.271 58.98L162.12 59.3503L162.123 59.3514L162.271 58.98ZM164.451 60.76C163.43 60.76 162.487 60.5879 161.617 60.2475L161.325 60.9925C162.296 61.3721 163.339 61.56 164.451 61.56V60.76ZM161.619 60.2482C160.758 59.9063 160.016 59.4336 159.388 58.8314L158.834 59.4086C159.54 60.0864 160.372 60.6137 161.324 60.9918L161.619 60.2482ZM159.391 58.8343C158.762 58.2178 158.272 57.5012 157.919 56.6818L157.184 56.9982C157.578 57.9121 158.127 58.7156 158.831 59.4057L159.391 58.8343ZM157.919 56.6818C157.569 55.8693 157.391 54.9771 157.391 54H156.591C156.591 55.0763 156.787 56.0773 157.184 56.9982L157.919 56.6818ZM157.391 54C157.391 53.0229 157.569 52.1307 157.919 51.3182L157.184 51.0018C156.787 51.9227 156.591 52.9237 156.591 54H157.391ZM157.919 51.3182C158.271 50.4996 158.761 49.7908 159.388 49.1886L158.834 48.6114C158.128 49.2892 157.578 50.0871 157.184 51.0018L157.919 51.3182ZM159.391 49.1857C160.018 48.5712 160.759 48.0931 161.619 47.7518L161.324 47.0082C160.37 47.3869 159.538 47.9221 158.831 48.6143L159.391 49.1857ZM161.619 47.7518C162.474 47.4123 163.416 47.24 164.451 47.24V46.44C163.326 46.44 162.282 46.6277 161.324 47.0082L161.619 47.7518ZM164.451 47.24C165.472 47.24 166.401 47.4121 167.242 47.751L167.541 47.009C166.595 46.6279 165.564 46.44 164.451 46.44V47.24ZM167.248 47.7536C168.106 48.0815 168.845 48.5523 169.471 49.1657L170.031 48.5943C169.324 47.901 168.49 47.3718 167.534 47.0064L167.248 47.7536ZM169.477 49.1713C170.116 49.7724 170.603 50.4787 170.942 51.2934L171.681 50.9866C171.299 50.068 170.747 49.2676 170.025 48.5887L169.477 49.1713ZM170.944 51.2982C171.294 52.11 171.471 53.0088 171.471 54H172.271C172.271 52.9112 172.076 51.9033 171.679 50.9817L170.944 51.2982ZM171.471 54C171.471 54.9912 171.294 55.89 170.944 56.7018L171.679 57.0182C172.076 56.0967 172.271 55.0888 172.271 54H171.471ZM170.942 56.7066C170.603 57.5221 170.115 58.2362 169.474 58.8516L170.028 59.4284C170.748 58.7371 171.299 57.9312 171.681 57.0134L170.942 56.7066ZM169.474 58.8514C168.847 59.4536 168.105 59.9263 167.244 60.2682L167.539 61.0118C168.491 60.6337 169.322 60.1064 170.028 59.4286L169.474 58.8514ZM167.247 60.2671C166.404 60.5939 165.474 60.76 164.451 60.76V61.56C165.562 61.56 166.592 61.3794 167.536 61.0129L167.247 60.2671ZM164.451 59.78C165.271 59.78 166.037 59.6384 166.742 59.3503L166.44 58.6097C165.839 58.8549 165.178 58.98 164.451 58.98V59.78ZM166.74 59.3514C167.454 59.0658 168.074 58.6633 168.594 58.1428L168.028 57.5772C167.589 58.0167 167.062 58.3609 166.443 58.6086L166.74 59.3514ZM168.594 58.1428C169.126 57.6114 169.535 56.9932 169.822 56.2912L169.081 55.9888C168.834 56.5935 168.484 57.1219 168.028 57.5772L168.594 58.1428ZM169.819 56.2976C170.122 55.5902 170.271 54.8227 170.271 54H169.471C169.471 54.724 169.34 55.3831 169.084 55.9824L169.819 56.2976ZM170.271 54C170.271 53.1773 170.122 52.4098 169.819 51.7024L169.084 52.0176C169.34 52.6169 169.471 53.276 169.471 54H170.271ZM169.822 51.7088C169.535 51.0058 169.124 50.3927 168.59 49.8733L168.032 50.4467C168.485 50.8873 168.835 51.4075 169.081 52.0112L169.822 51.7088ZM168.598 49.8811C168.077 49.3458 167.456 48.9352 166.74 48.6486L166.443 49.3914C167.06 49.6382 167.585 49.9875 168.025 50.4389L168.598 49.8811ZM166.742 48.6497C166.037 48.3616 165.271 48.22 164.451 48.22V49.02C165.178 49.02 165.839 49.1451 166.44 49.3903L166.742 48.6497ZM164.451 48.22C163.619 48.22 162.841 48.3613 162.123 48.6486L162.42 49.3914C163.035 49.1454 163.711 49.02 164.451 49.02V48.22ZM162.12 48.6497C161.418 48.9362 160.8 49.3457 160.268 49.8772L160.834 50.4428C161.289 49.9876 161.818 49.6371 162.422 49.3903L162.12 48.6497ZM160.272 49.8733C159.74 50.3913 159.324 51.0022 159.024 51.7024L159.759 52.0176C160.019 51.4111 160.376 50.8887 160.83 50.4467L160.272 49.8733ZM159.021 51.7088C158.733 52.4146 158.591 53.1798 158.591 54H159.391C159.391 53.2735 159.516 52.6121 159.762 52.0112L159.021 51.7088ZM158.591 54C158.591 54.8202 158.733 55.5854 159.021 56.2912L159.762 55.9888C159.516 55.3879 159.391 54.7265 159.391 54H158.591ZM159.024 56.2976C159.323 56.9968 159.738 57.6128 160.268 58.1428L160.834 57.5772C160.377 57.1205 160.019 56.5899 159.759 55.9824L159.024 56.2976ZM160.272 58.1467C160.803 58.6634 161.42 59.0648 162.12 59.3503L162.422 58.6097C161.815 58.3619 161.286 58.0166 160.83 57.5733L160.272 58.1467ZM162.123 59.3514C162.841 59.6387 163.619 59.78 164.451 59.78V58.98C163.711 58.98 163.035 58.8546 162.42 58.6086L162.123 59.3514ZM175.528 61H175.128V61.4H175.528V61ZM175.528 47V46.6H175.128V47H175.528ZM177.528 47H177.928V46.6H177.528V47ZM177.528 59.26H177.128V59.66H177.528V59.26ZM185.108 59.26H185.508V58.86H185.108V59.26ZM185.108 61V61.4H185.508V61H185.108ZM175.928 61V47H175.128V61H175.928ZM175.528 47.4H177.528V46.6H175.528V47.4ZM177.128 47V59.26H177.928V47H177.128ZM177.528 59.66H185.108V58.86H177.528V59.66ZM184.708 59.26V61H185.508V59.26H184.708ZM185.108 60.6H175.528V61.4H185.108V60.6ZM191.089 60.62L190.942 60.9918L190.943 60.9925L191.089 60.62ZM188.729 59.12L188.449 59.4057L188.452 59.4086L188.729 59.12ZM187.169 56.84L187.537 56.6818L187.537 56.6818L187.169 56.84ZM187.169 51.16L187.537 51.3182L187.537 51.3182L187.169 51.16ZM188.729 48.9L189.006 49.1886L189.009 49.1857L188.729 48.9ZM191.089 47.38L190.942 47.0082L190.942 47.0082L191.089 47.38ZM197.009 47.38L196.86 47.7511L196.866 47.7536L197.009 47.38ZM199.369 48.88L199.089 49.1657L199.095 49.1713L199.369 48.88ZM200.929 51.14L200.56 51.2935L200.562 51.2982L200.929 51.14ZM200.929 56.86L200.562 56.7017L200.56 56.7066L200.929 56.86ZM199.369 59.14L199.646 59.4286L199.646 59.4284L199.369 59.14ZM197.009 60.64L197.154 61.0129L197.157 61.0118L197.009 60.64ZM196.209 58.98L196.061 58.6086L196.058 58.6097L196.209 58.98ZM197.929 57.86L198.212 58.1428L198.212 58.1428L197.929 57.86ZM199.069 56.14L198.702 55.9824L198.699 55.9888L199.069 56.14ZM199.069 51.86L198.699 52.0112L198.702 52.0176L199.069 51.86ZM197.929 50.16L197.642 50.439L197.65 50.4467L197.929 50.16ZM196.209 49.02L196.058 49.3903L196.061 49.3914L196.209 49.02ZM191.889 49.02L191.741 48.6486L191.738 48.6497L191.889 49.02ZM190.169 50.16L190.448 50.4467L190.452 50.4428L190.169 50.16ZM189.009 51.86L188.642 51.7024L188.639 51.7088L189.009 51.86ZM189.009 56.14L188.639 56.2912L188.642 56.2976L189.009 56.14ZM190.169 57.86L189.886 58.1429L189.89 58.1467L190.169 57.86ZM191.889 58.98L191.738 59.3503L191.741 59.3514L191.889 58.98ZM194.069 60.76C193.048 60.76 192.105 60.5879 191.235 60.2475L190.943 60.9925C191.913 61.3721 192.957 61.56 194.069 61.56V60.76ZM191.237 60.2482C190.376 59.9063 189.634 59.4336 189.006 58.8314L188.452 59.4086C189.158 60.0864 189.99 60.6137 190.942 60.9918L191.237 60.2482ZM189.009 58.8343C188.38 58.2178 187.89 57.5012 187.537 56.6818L186.802 56.9982C187.196 57.9121 187.745 58.7156 188.449 59.4057L189.009 58.8343ZM187.537 56.6818C187.187 55.8693 187.009 54.9771 187.009 54H186.209C186.209 55.0763 186.405 56.0773 186.802 56.9982L187.537 56.6818ZM187.009 54C187.009 53.0229 187.187 52.1307 187.537 51.3182L186.802 51.0018C186.405 51.9227 186.209 52.9237 186.209 54H187.009ZM187.537 51.3182C187.889 50.4996 188.379 49.7908 189.006 49.1886L188.452 48.6114C187.746 49.2892 187.196 50.0871 186.802 51.0018L187.537 51.3182ZM189.009 49.1857C189.636 48.5712 190.377 48.0931 191.237 47.7518L190.942 47.0082C189.988 47.3869 189.156 47.9221 188.449 48.6143L189.009 49.1857ZM191.237 47.7518C192.092 47.4123 193.034 47.24 194.069 47.24V46.44C192.944 46.44 191.9 46.6277 190.942 47.0082L191.237 47.7518ZM194.069 47.24C195.09 47.24 196.019 47.4121 196.86 47.751L197.159 47.009C196.213 46.6279 195.182 46.44 194.069 46.44V47.24ZM196.866 47.7536C197.724 48.0815 198.463 48.5523 199.089 49.1657L199.649 48.5943C198.942 47.901 198.108 47.3718 197.152 47.0064L196.866 47.7536ZM199.095 49.1713C199.734 49.7724 200.221 50.4787 200.56 51.2934L201.299 50.9866C200.917 50.068 200.365 49.2676 199.643 48.5887L199.095 49.1713ZM200.562 51.2982C200.912 52.11 201.089 53.0088 201.089 54H201.889C201.889 52.9112 201.694 51.9033 201.297 50.9817L200.562 51.2982ZM201.089 54C201.089 54.9912 200.912 55.89 200.562 56.7018L201.297 57.0182C201.694 56.0967 201.889 55.0888 201.889 54H201.089ZM200.56 56.7066C200.221 57.5221 199.733 58.2362 199.092 58.8516L199.646 59.4284C200.366 58.7371 200.917 57.9312 201.299 57.0134L200.56 56.7066ZM199.092 58.8514C198.465 59.4536 197.723 59.9263 196.862 60.2682L197.157 61.0118C198.109 60.6337 198.94 60.1064 199.646 59.4286L199.092 58.8514ZM196.865 60.2671C196.022 60.5939 195.092 60.76 194.069 60.76V61.56C195.18 61.56 196.21 61.3794 197.154 61.0129L196.865 60.2671ZM194.069 59.78C194.889 59.78 195.655 59.6384 196.36 59.3503L196.058 58.6097C195.457 58.8549 194.796 58.98 194.069 58.98V59.78ZM196.358 59.3514C197.072 59.0658 197.692 58.6633 198.212 58.1428L197.646 57.5772C197.207 58.0167 196.68 58.3609 196.061 58.6086L196.358 59.3514ZM198.212 58.1428C198.743 57.6114 199.153 56.9932 199.44 56.2912L198.699 55.9888C198.452 56.5935 198.102 57.1219 197.646 57.5772L198.212 58.1428ZM199.437 56.2976C199.74 55.5902 199.889 54.8227 199.889 54H199.089C199.089 54.724 198.958 55.3831 198.702 55.9824L199.437 56.2976ZM199.889 54C199.889 53.1773 199.74 52.4098 199.437 51.7024L198.702 52.0176C198.958 52.6169 199.089 53.276 199.089 54H199.889ZM199.44 51.7088C199.153 51.0058 198.742 50.3927 198.208 49.8733L197.65 50.4467C198.103 50.8873 198.452 51.4075 198.699 52.0112L199.44 51.7088ZM198.216 49.8811C197.695 49.3458 197.074 48.9352 196.358 48.6486L196.061 49.3914C196.678 49.6382 197.203 49.9875 197.643 50.4389L198.216 49.8811ZM196.36 48.6497C195.655 48.3616 194.889 48.22 194.069 48.22V49.02C194.796 49.02 195.457 49.1451 196.058 49.3903L196.36 48.6497ZM194.069 48.22C193.237 48.22 192.459 48.3613 191.741 48.6486L192.038 49.3914C192.653 49.1454 193.329 49.02 194.069 49.02V48.22ZM191.738 48.6497C191.036 48.9362 190.418 49.3457 189.886 49.8772L190.452 50.4428C190.907 49.9876 191.436 49.6371 192.04 49.3903L191.738 48.6497ZM189.89 49.8733C189.358 50.3913 188.942 51.0022 188.642 51.7024L189.377 52.0176C189.637 51.4111 189.994 50.8887 190.448 50.4467L189.89 49.8733ZM188.639 51.7088C188.351 52.4146 188.209 53.1798 188.209 54H189.009C189.009 53.2735 189.134 52.6121 189.38 52.0112L188.639 51.7088ZM188.209 54C188.209 54.8202 188.351 55.5854 188.639 56.2912L189.38 55.9888C189.134 55.3879 189.009 54.7265 189.009 54H188.209ZM188.642 56.2976C188.941 56.9968 189.356 57.6128 189.886 58.1428L190.452 57.5772C189.995 57.1205 189.637 56.5899 189.377 55.9824L188.642 56.2976ZM189.89 58.1467C190.421 58.6634 191.038 59.0648 191.738 59.3503L192.04 58.6097C191.433 58.3619 190.904 58.0166 190.448 57.5733L189.89 58.1467ZM191.741 59.3514C192.459 59.6387 193.237 59.78 194.069 59.78V58.98C193.329 58.98 192.653 58.8546 192.038 58.6086L191.741 59.3514ZM208.486 60.64L208.338 61.0118L208.343 61.0136L208.486 60.64ZM206.126 59.14L205.846 59.4257L205.849 59.4286L206.126 59.14ZM204.566 56.86L204.933 56.7018L204.933 56.7018L204.566 56.86ZM204.566 51.14L204.933 51.2982L204.933 51.2982L204.566 51.14ZM206.126 48.88L206.403 49.1686L206.403 49.1684L206.126 48.88ZM208.506 47.38L208.649 47.7537L208.654 47.7518L208.506 47.38ZM214.546 47.38L214.692 47.0075L214.692 47.0075L214.546 47.38ZM216.886 49L217.169 49.2828L217.436 49.0161L217.185 48.7343L216.886 49ZM215.646 50.24L215.367 50.5261L215.649 50.8024L215.929 50.5228L215.646 50.24ZM213.766 49.02L213.617 49.3915L213.626 49.3948L213.766 49.02ZM209.346 49.02L209.203 48.6467L209.2 48.6476L209.346 49.02ZM207.566 50.14L207.291 49.8496L207.287 49.8533L207.566 50.14ZM206.406 51.86L206.037 51.7051L206.036 51.7088L206.406 51.86ZM206.406 56.14L206.035 56.2886L206.038 56.2976L206.406 56.14ZM207.566 57.86L207.283 58.1429L207.291 58.1504L207.566 57.86ZM209.346 58.98L209.492 58.6076L209.492 58.6076L209.346 58.98ZM213.706 59.04L213.833 59.4195L213.837 59.418L213.706 59.04ZM215.626 57.86L215.946 57.62L215.679 57.2639L215.353 57.5674L215.626 57.86ZM216.766 59.38L217.024 59.6854L217.312 59.4417L217.086 59.14L216.766 59.38ZM214.326 60.72L214.448 61.1011L214.451 61.1L214.326 60.72ZM214.846 59.12H214.446V59.4695L214.792 59.5164L214.846 59.12ZM214.846 53.92V53.52H214.446V53.92H214.846ZM216.766 53.92H217.166V53.52H216.766V53.92ZM216.766 59.38L216.712 59.7764L217.166 59.8378V59.38H216.766ZM211.466 60.76C210.429 60.76 209.485 60.5938 208.629 60.2664L208.343 61.0136C209.3 61.3796 210.343 61.56 211.466 61.56V60.76ZM208.634 60.2682C207.772 59.9263 207.03 59.4536 206.403 58.8514L205.849 59.4286C206.555 60.1064 207.386 60.6337 208.338 61.0118L208.634 60.2682ZM206.406 58.8543C205.777 58.2378 205.286 57.5212 204.933 56.7018L204.199 57.0182C204.592 57.9321 205.142 58.7356 205.846 59.4257L206.406 58.8543ZM204.933 56.7018C204.584 55.89 204.406 54.9912 204.406 54H203.606C203.606 55.0888 203.802 56.0967 204.199 57.0182L204.933 56.7018ZM204.406 54C204.406 53.0088 204.584 52.11 204.933 51.2982L204.199 50.9817C203.802 51.9033 203.606 52.9112 203.606 54H204.406ZM204.933 51.2982C205.286 50.4796 205.776 49.7708 206.403 49.1686L205.849 48.5914C205.143 49.2692 204.593 50.0671 204.199 50.9817L204.933 51.2982ZM206.403 49.1684C207.043 48.5533 207.791 48.0817 208.649 47.7536L208.363 47.0064C207.408 47.3716 206.569 47.9 205.849 48.5916L206.403 49.1684ZM208.654 47.7518C209.508 47.4125 210.457 47.24 211.506 47.24V46.44C210.368 46.44 209.317 46.6275 208.358 47.0082L208.654 47.7518ZM211.506 47.24C212.569 47.24 213.532 47.4127 214.4 47.7525L214.692 47.0075C213.72 46.6273 212.657 46.44 211.506 46.44V47.24ZM214.4 47.7525C215.263 48.0901 215.99 48.5941 216.587 49.2657L217.185 48.7343C216.502 47.9658 215.669 47.3899 214.692 47.0075L214.4 47.7525ZM216.603 48.7172L215.363 49.9572L215.929 50.5228L217.169 49.2828L216.603 48.7172ZM215.926 49.9538C215.317 49.359 214.643 48.9199 213.906 48.6452L213.626 49.3948C214.249 49.6267 214.829 50.001 215.367 50.5261L215.926 49.9538ZM213.915 48.6486C213.196 48.3613 212.419 48.22 211.586 48.22V49.02C212.327 49.02 213.002 49.1454 213.618 49.3914L213.915 48.6486ZM211.586 48.22C210.741 48.22 209.945 48.3611 209.203 48.6467L209.49 49.3933C210.134 49.1456 210.831 49.02 211.586 49.02V48.22ZM209.2 48.6476C208.474 48.9322 207.837 49.3326 207.291 49.8496L207.841 50.4304C208.309 49.9874 208.858 49.6412 209.492 49.3924L209.2 48.6476ZM207.287 49.8533C206.753 50.3726 206.337 50.9915 206.037 51.7051L206.775 52.0149C207.035 51.3952 207.392 50.8674 207.845 50.4267L207.287 49.8533ZM206.036 51.7088C205.748 52.4146 205.606 53.1798 205.606 54H206.406C206.406 53.2735 206.531 52.6121 206.776 52.0112L206.036 51.7088ZM205.606 54C205.606 54.8079 205.748 55.5719 206.035 56.2886L206.777 55.9914C206.531 55.3747 206.406 54.7121 206.406 54H205.606ZM206.038 56.2976C206.338 56.9968 206.753 57.6128 207.283 58.1428L207.849 57.5772C207.392 57.1205 207.034 56.5899 206.774 55.9824L206.038 56.2976ZM207.291 58.1504C207.837 58.6674 208.474 59.0678 209.2 59.3524L209.492 58.6076C208.858 58.3588 208.309 58.0126 207.841 57.5696L207.291 58.1504ZM209.2 59.3524C209.931 59.639 210.721 59.78 211.566 59.78V58.98C210.811 58.98 210.121 58.8544 209.492 58.6076L209.2 59.3524ZM211.566 59.78C212.354 59.78 213.11 59.6603 213.833 59.4195L213.58 58.6605C212.942 58.873 212.272 58.98 211.566 58.98V59.78ZM213.837 59.418C214.588 59.1581 215.275 58.7338 215.899 58.1526L215.353 57.5674C214.804 58.0796 214.211 58.4419 213.575 58.662L213.837 59.418ZM215.306 58.1L216.446 59.62L217.086 59.14L215.946 57.62L215.306 58.1ZM216.508 59.0746C215.857 59.6254 215.09 60.0481 214.201 60.34L214.451 61.1C215.429 60.7786 216.289 60.3079 217.024 59.6854L216.508 59.0746ZM214.205 60.3389C213.325 60.6194 212.412 60.76 211.466 60.76V61.56C212.493 61.56 213.487 61.4072 214.448 61.1011L214.205 60.3389ZM215.246 59.12V53.92H214.446V59.12H215.246ZM214.846 54.32H216.766V53.52H214.846V54.32ZM216.366 53.92V59.38H217.166V53.92H216.366ZM216.82 58.9836L214.9 58.7236L214.792 59.5164L216.712 59.7764L216.82 58.9836ZM224.575 61H224.175V61.4H224.575V61ZM224.575 55.64L224.95 55.5009L224.175 55.64H224.575ZM225.035 56.88L224.694 57.0881L225.41 56.7409L225.035 56.88ZM219.015 47V46.6H218.303L218.674 47.2081L219.015 47ZM221.155 47L221.497 46.7925L221.38 46.6H221.155V47ZM226.215 55.34V55.74H226.926L226.557 55.1325L226.215 55.34ZM225.055 55.34L224.714 55.1319L224.343 55.74H225.055V55.34ZM230.135 47V46.6H229.911L229.794 46.7919L230.135 47ZM232.115 47L232.457 47.2076L232.826 46.6H232.115V47ZM226.115 56.88L225.738 56.7462L226.457 57.0876L226.115 56.88ZM226.555 55.64H226.955L226.178 55.5062L226.555 55.64ZM226.555 61V61.4H226.955V61H226.555ZM224.975 61V55.64H224.175V61H224.975ZM224.2 55.7791L224.66 57.0191L225.41 56.7409L224.95 55.5009L224.2 55.7791ZM225.377 56.6719L219.357 46.7919L218.674 47.2081L224.694 57.0881L225.377 56.6719ZM219.015 47.4H221.155V46.6H219.015V47.4ZM220.813 47.2075L225.873 55.5475L226.557 55.1325L221.497 46.7925L220.813 47.2075ZM226.215 54.94H225.055V55.74H226.215V54.94ZM225.397 55.5481L230.477 47.2081L229.794 46.7919L224.714 55.1319L225.397 55.5481ZM230.135 47.4H232.115V46.6H230.135V47.4ZM231.773 46.7924L225.773 56.6724L226.457 57.0876L232.457 47.2076L231.773 46.7924ZM226.492 57.0138L226.932 55.7738L226.178 55.5062L225.738 56.7462L226.492 57.0138ZM226.155 55.64V61H226.955V55.64H226.155ZM226.555 60.6H224.575V61.4H226.555V60.6Z" fill="#1E2748" mask="url(#path-8-outside-1_62_44)"/>
</svg>
